<?xml version="1.0" encoding="UTF-8" standalone="no"?>
<!DOCTYPE svg PUBLIC "-//W3C//DTD SVG 1.1//EN" "http://www.w3.org/Graphics/SVG/1.1/DTD/svg11.dtd">
<svg width="100%" height="100%" viewBox="0 0 1401 641" version="1.1" xmlns="http://www.w3.org/2000/svg" xmlns:xlink="http://www.w3.org/1999/xlink" xml:space="preserve" xmlns:serif="http://www.serif.com/" style="fill-rule:evenodd;clip-rule:evenodd;stroke-linejoin:round;stroke-miterlimit:2;">
    <g transform="matrix(1,0,0,1,-259.604,-116.642)">
        <g transform="matrix(0.726802,0,0,0.726802,262.27,119.309)">
            <g transform="matrix(3.07999,0,0,3.07999,-759.949,-1843.2)">
                <circle cx="314.603" cy="662.72" r="27.713" style="fill:rgb(77,100,174);"/>
                <path d="M314.603,633.815C298.65,633.815 285.698,646.767 285.698,662.72C285.698,678.672 298.65,691.624 314.603,691.624C330.555,691.624 343.507,678.672 343.507,662.72C343.507,646.767 330.555,633.815 314.603,633.815ZM314.603,635.007C329.898,635.007 342.316,647.424 342.316,662.72C342.316,678.015 329.898,690.433 314.603,690.433C299.307,690.433 286.889,678.015 286.889,662.72C286.889,647.424 299.307,635.007 314.603,635.007Z" style="fill:white;"/>
            </g>
            <g>
                <g transform="matrix(2.77589,0,0,2.77589,-640.559,-249.117)">
                    <path d="M330.149,343.642C330.149,356.569 328.68,366.987 325.742,374.897C322.804,382.807 318.669,388.954 313.335,393.338C308.002,397.722 301.584,400.66 294.081,402.152C286.578,403.643 278.261,404.389 269.131,404.389C262.984,404.389 257.515,403.869 252.724,402.83C247.933,401.79 243.911,400.366 240.657,398.558C237.402,396.75 234.939,394.649 233.267,392.253C231.594,389.858 230.758,387.349 230.758,384.728C230.758,380.118 232.566,376.276 236.182,373.202C239.798,370.129 244.724,368.592 250.962,368.592C253.312,368.592 255.414,368.954 257.267,369.677C259.12,370.4 260.77,371.326 262.216,372.456C263.662,373.586 264.951,374.807 266.081,376.117C267.21,377.428 268.182,378.671 268.996,379.846C271.075,382.558 272.815,384.366 274.216,385.27C275.617,386.174 276.906,386.626 278.081,386.626C279.346,386.626 280.476,386.31 281.471,385.677C282.465,385.044 283.278,383.914 283.911,382.287C284.544,380.66 285.019,378.49 285.335,375.778C285.651,373.067 285.81,369.586 285.81,365.338L285.81,206.014L330.149,193.81L330.149,343.642Z" style="fill-rule:nonzero;"/>
                    <path d="M331.471,343.642L331.471,193.81C331.471,193.398 331.278,193.009 330.95,192.759C330.622,192.509 330.196,192.426 329.798,192.536L285.459,204.739C284.885,204.897 284.488,205.419 284.488,206.014L284.488,365.338C284.488,369.524 284.334,372.953 284.022,375.625C283.722,378.201 283.28,380.263 282.679,381.808C282.171,383.115 281.56,384.053 280.761,384.562C279.975,385.062 279.081,385.304 278.081,385.304C277.12,385.304 276.079,384.899 274.933,384.159C273.62,383.313 272.011,381.604 270.066,379.07C269.23,377.865 268.236,376.594 267.082,375.254C265.897,373.88 264.546,372.6 263.03,371.415C261.486,370.209 259.726,369.217 257.747,368.445C255.753,367.667 253.492,367.27 250.962,367.27C244.357,367.27 239.154,368.941 235.326,372.195C231.395,375.536 229.436,379.716 229.436,384.728C229.436,387.611 230.343,390.375 232.183,393.01C233.958,395.552 236.561,397.795 240.015,399.714C243.367,401.576 247.509,403.05 252.444,404.121C257.317,405.179 262.879,405.711 269.131,405.711C278.356,405.711 286.758,404.955 294.339,403.448C302.07,401.911 308.679,398.877 314.175,394.359C319.673,389.839 323.952,383.512 326.981,375.357C329.963,367.331 331.471,356.761 331.471,343.642ZM330.149,343.642C330.149,356.569 328.68,366.987 325.742,374.897C322.804,382.807 318.669,388.954 313.335,393.338C308.002,397.722 301.584,400.66 294.081,402.152C286.578,403.643 278.261,404.389 269.131,404.389C262.984,404.389 257.515,403.869 252.724,402.83C247.933,401.79 243.911,400.366 240.657,398.558C237.402,396.75 234.939,394.649 233.267,392.253C231.594,389.858 230.758,387.349 230.758,384.728C230.758,380.118 232.566,376.276 236.182,373.202C239.798,370.129 244.724,368.592 250.962,368.592C253.312,368.592 255.414,368.954 257.267,369.677C259.12,370.4 260.77,371.326 262.216,372.456C263.662,373.586 264.951,374.807 266.081,376.117C267.21,377.428 268.182,378.671 268.996,379.846C271.075,382.558 272.815,384.366 274.216,385.27C275.617,386.174 276.906,386.626 278.081,386.626C279.346,386.626 280.476,386.31 281.471,385.677C282.465,385.044 283.278,383.914 283.911,382.287C284.544,380.66 285.019,378.49 285.335,375.778C285.651,373.067 285.81,369.586 285.81,365.338L285.81,206.014L330.149,193.81L330.149,343.642Z" style="fill:white;"/>
                </g>
                <g transform="matrix(2.77589,0,0,2.77589,-640.559,-249.117)">
                    <path d="M395.587,198.149L395.587,300.659C395.587,303.552 396.152,306.241 397.282,308.727C398.412,311.213 399.949,313.36 401.892,315.168C403.836,316.976 406.096,318.422 408.672,319.507C411.248,320.591 413.983,321.134 416.876,321.134C418.503,321.134 420.356,320.682 422.435,319.778C424.514,318.874 426.616,317.608 428.74,315.981C430.864,314.354 432.944,312.456 434.978,310.286C437.011,308.117 438.842,305.721 440.469,303.1L440.469,198.149L484.673,198.149L484.673,343.642L440.469,343.642L440.469,330.083C434.684,335.055 428.514,339.01 421.96,341.948C415.407,344.885 409.011,346.354 402.774,346.354C395.542,346.354 388.807,345.157 382.57,342.761C376.333,340.366 370.909,337.111 366.299,332.998C361.688,328.885 358.073,324.049 355.451,318.49C352.83,312.93 351.519,306.987 351.519,300.659L351.519,198.149L395.587,198.149Z" style="fill-rule:nonzero;"/>
                    <path d="M396.909,198.149C396.909,197.419 396.317,196.827 395.587,196.827L351.519,196.827C350.789,196.827 350.197,197.419 350.197,198.149L350.197,300.659C350.197,307.187 351.551,313.318 354.256,319.053C356.953,324.775 360.674,329.752 365.419,333.985C370.145,338.201 375.703,341.539 382.096,343.995C388.48,346.447 395.372,347.676 402.774,347.676C409.186,347.676 415.763,346.174 422.501,343.154C428.35,340.532 433.9,337.114 439.147,332.9C439.147,332.9 439.147,343.642 439.147,343.642C439.147,344.372 439.739,344.964 440.469,344.964L484.673,344.964C485.403,344.964 485.995,344.372 485.995,343.642L485.995,198.149C485.995,197.419 485.403,196.827 484.673,196.827L440.469,196.827C439.739,196.827 439.147,197.419 439.147,198.149L439.147,302.72C437.617,305.143 435.906,307.363 434.013,309.382C432.031,311.496 430.006,313.346 427.936,314.932C425.905,316.488 423.896,317.701 421.908,318.566C420.024,319.385 418.35,319.812 416.876,319.812C414.164,319.812 411.6,319.305 409.185,318.288C406.756,317.266 404.625,315.904 402.793,314.2C400.976,312.51 399.541,310.503 398.485,308.18C397.432,305.863 396.909,303.355 396.909,300.659L396.909,198.149ZM395.587,198.149L395.587,300.659C395.587,303.552 396.152,306.241 397.282,308.727C398.412,311.213 399.949,313.36 401.892,315.168C403.836,316.976 406.096,318.422 408.672,319.507C411.248,320.591 413.983,321.134 416.876,321.134C418.503,321.134 420.356,320.682 422.435,319.778C424.514,318.874 426.616,317.608 428.74,315.981C430.864,314.354 432.944,312.456 434.978,310.286C437.011,308.117 438.842,305.721 440.469,303.1L440.469,198.149L484.673,198.149L484.673,343.642L440.469,343.642L440.469,330.083C434.684,335.055 428.514,339.01 421.96,341.948C415.407,344.885 409.011,346.354 402.774,346.354C395.542,346.354 388.807,345.157 382.57,342.761C376.333,340.366 370.909,337.111 366.299,332.998C361.688,328.885 358.073,324.049 355.451,318.49C352.83,312.93 351.519,306.987 351.519,300.659L351.519,198.149L395.587,198.149Z" style="fill:white;"/>
                </g>
                <g transform="matrix(2.77589,0,0,2.77589,-618.999,-249.117)">
                    <path d="M498.704,150.555L549.346,150.555L605.841,282.489L662.689,150.555L704.681,150.555L704.681,343.642L660.671,343.642L660.671,217.81L606.471,343.642L589.447,343.642L534.34,216.319L534.34,343.642L498.704,343.642L498.704,150.555Z" style="fill-rule:nonzero;"/>
                    <path d="M498.704,149.234C497.974,149.234 497.382,149.825 497.382,150.555L497.382,343.642C497.382,344.372 497.974,344.964 498.704,344.964L534.34,344.964C535.07,344.964 535.661,344.372 535.661,343.642L535.661,222.7C535.661,222.7 588.234,344.168 588.234,344.168C588.444,344.651 588.92,344.964 589.447,344.964L606.471,344.964C606.999,344.964 607.476,344.65 607.685,344.165L659.349,224.22C659.349,224.22 659.349,343.642 659.349,343.642C659.349,344.372 659.941,344.964 660.671,344.964L704.681,344.964C705.411,344.964 706.003,344.372 706.003,343.642L706.003,150.555C706.003,149.825 705.411,149.234 704.681,149.234L662.689,149.234C662.161,149.234 661.684,149.548 661.475,150.032L605.845,279.14C597.643,259.986 550.561,150.035 550.561,150.035C550.353,149.549 549.875,149.234 549.346,149.234L498.704,149.234ZM498.704,150.555L549.346,150.555L605.841,282.489L662.689,150.555L704.681,150.555L704.681,343.642L660.671,343.642L660.671,217.81L606.471,343.642L589.447,343.642L534.34,216.319L534.34,343.642L498.704,343.642L498.704,150.555Z" style="fill:white;"/>
                </g>
                <g transform="matrix(2.77589,0,0,2.77589,-646.719,-249.117)">
                    <path d="M735.923,150.555L779.933,150.555L779.933,316.079L869.391,316.079L869.391,343.642L735.923,343.642L735.923,150.555Z" style="fill-rule:nonzero;"/>
                    <path d="M735.923,149.234C735.193,149.234 734.602,149.825 734.602,150.555L734.602,343.642C734.602,344.372 735.193,344.964 735.923,344.964L869.391,344.964C870.121,344.964 870.713,344.372 870.713,343.642L870.713,316.079C870.713,315.349 870.121,314.757 869.391,314.757L781.255,314.757C781.255,314.757 781.255,150.555 781.255,150.555C781.255,149.825 780.663,149.234 779.933,149.234L735.923,149.234ZM735.923,150.555L779.933,150.555L779.933,316.079L869.391,316.079L869.391,343.642L735.923,343.642L735.923,150.555Z" style="fill:white;"/>
                </g>
            </g>
            <g>
                <g transform="matrix(1.12539,0,0,1.12539,1555.26,0)">
                    <path d="M150.898,225C150.898,266.422 117.32,300 75.898,300C34.477,300 0.898,266.422 0.898,225C0.898,183.578 34.477,150 75.898,150C117.32,150 150.898,183.578 150.898,225" style="fill:rgb(202,59,51);fill-rule:nonzero;stroke:white;stroke-width:6.52px;"/>
                </g>
                <g transform="matrix(1.12539,0,0,1.12539,1555.26,0)">
                    <path d="M237.5,75C237.5,116.422 203.922,150 162.5,150C121.078,150 87.5,116.422 87.5,75C87.5,33.578 121.078,0 162.5,0C203.922,0 237.5,33.578 237.5,75" style="fill:rgb(56,151,37);fill-rule:nonzero;stroke:white;stroke-width:6.52px;"/>
                </g>
                <g transform="matrix(1.12539,0,0,1.12539,1555.26,0)">
                    <path d="M324.102,225C324.102,266.422 290.523,300 249.102,300C207.68,300 174.102,266.422 174.102,225C174.102,183.578 207.68,150 249.102,150C290.523,150 324.102,183.578 324.102,225" style="fill:rgb(148,87,177);fill-rule:nonzero;stroke:white;stroke-width:6.52px;"/>
                </g>
            </g>
        </g>
        <g transform="matrix(0.726802,0,0,0.726802,262.27,119.309)">
            <g transform="matrix(3.07999,0,0,3.07999,-759.949,-1843.2)">
                <circle cx="314.603" cy="662.72" r="27.713" style="fill:rgb(77,100,174);"/>
            </g>
            <g>
                <g transform="matrix(2.77589,0,0,2.77589,-640.559,-249.117)">
                    <path d="M330.149,343.642C330.149,356.569 328.68,366.987 325.742,374.897C322.804,382.807 318.669,388.954 313.335,393.338C308.002,397.722 301.584,400.66 294.081,402.152C286.578,403.643 278.261,404.389 269.131,404.389C262.984,404.389 257.515,403.869 252.724,402.83C247.933,401.79 243.911,400.366 240.657,398.558C237.402,396.75 234.939,394.649 233.267,392.253C231.594,389.858 230.758,387.349 230.758,384.728C230.758,380.118 232.566,376.276 236.182,373.202C239.798,370.129 244.724,368.592 250.962,368.592C253.312,368.592 255.414,368.954 257.267,369.677C259.12,370.4 260.77,371.326 262.216,372.456C263.662,373.586 264.951,374.807 266.081,376.117C267.21,377.428 268.182,378.671 268.996,379.846C271.075,382.558 272.815,384.366 274.216,385.27C275.617,386.174 276.906,386.626 278.081,386.626C279.346,386.626 280.476,386.31 281.471,385.677C282.465,385.044 283.278,383.914 283.911,382.287C284.544,380.66 285.019,378.49 285.335,375.778C285.651,373.067 285.81,369.586 285.81,365.338L285.81,206.014L330.149,193.81L330.149,343.642Z" style="fill-rule:nonzero;"/>
                </g>
                <g transform="matrix(2.77589,0,0,2.77589,-640.559,-249.117)">
                    <path d="M395.587,198.149L395.587,300.659C395.587,303.552 396.152,306.241 397.282,308.727C398.412,311.213 399.949,313.36 401.892,315.168C403.836,316.976 406.096,318.422 408.672,319.507C411.248,320.591 413.983,321.134 416.876,321.134C418.503,321.134 420.356,320.682 422.435,319.778C424.514,318.874 426.616,317.608 428.74,315.981C430.864,314.354 432.944,312.456 434.978,310.286C437.011,308.117 438.842,305.721 440.469,303.1L440.469,198.149L484.673,198.149L484.673,343.642L440.469,343.642L440.469,330.083C434.684,335.055 428.514,339.01 421.96,341.948C415.407,344.885 409.011,346.354 402.774,346.354C395.542,346.354 388.807,345.157 382.57,342.761C376.333,340.366 370.909,337.111 366.299,332.998C361.688,328.885 358.073,324.049 355.451,318.49C352.83,312.93 351.519,306.987 351.519,300.659L351.519,198.149L395.587,198.149Z" style="fill-rule:nonzero;"/>
                </g>
                <g transform="matrix(2.77589,0,0,2.77589,-618.999,-249.117)">
                    <path d="M498.704,150.555L549.346,150.555L605.841,282.489L662.689,150.555L704.681,150.555L704.681,343.642L660.671,343.642L660.671,217.81L606.471,343.642L589.447,343.642L534.34,216.319L534.34,343.642L498.704,343.642L498.704,150.555Z" style="fill-rule:nonzero;"/>
                </g>
                <g transform="matrix(2.77589,0,0,2.77589,-646.719,-249.117)">
                    <path d="M735.923,150.555L779.933,150.555L779.933,316.079L869.391,316.079L869.391,343.642L735.923,343.642L735.923,150.555Z" style="fill-rule:nonzero;"/>
                </g>
            </g>
            <g>
                <g transform="matrix(1.12539,0,0,1.12539,1555.26,0)">
                    <path d="M150.898,225C150.898,266.422 117.32,300 75.898,300C34.477,300 0.898,266.422 0.898,225C0.898,183.578 34.477,150 75.898,150C117.32,150 150.898,183.578 150.898,225" style="fill:rgb(202,59,51);fill-rule:nonzero;"/>
                </g>
                <g transform="matrix(1.12539,0,0,1.12539,1555.26,0)">
                    <path d="M237.5,75C237.5,116.422 203.922,150 162.5,150C121.078,150 87.5,116.422 87.5,75C87.5,33.578 121.078,0 162.5,0C203.922,0 237.5,33.578 237.5,75" style="fill:rgb(56,151,37);fill-rule:nonzero;"/>
                </g>
                <g transform="matrix(1.12539,0,0,1.12539,1555.26,0)">
                    <path d="M324.102,225C324.102,266.422 290.523,300 249.102,300C207.68,300 174.102,266.422 174.102,225C174.102,183.578 207.68,150 249.102,150C290.523,150 324.102,183.578 324.102,225" style="fill:rgb(148,87,177);fill-rule:nonzero;"/>
                </g>
            </g>
        </g>
    </g>
</svg>
